<svg width="40" height="40" viewBox="0 0 40 40" fill="none" xmlns="http://www.w3.org/2000/svg">
<path d="M0 12C0 5.37258 5.37258 0 12 0H28C34.6274 0 40 5.37258 40 12V28C40 34.6274 34.6274 40 28 40H12C5.37258 40 0 34.6274 0 28V12Z" fill="#F5F5F5"/>
<path d="M18.0157 26.7498C18.5446 27.2165 19.2392 27.4998 20.0001 27.4998C20.7609 27.4998 21.4556 27.2165 21.9844 26.7498M24.5001 16.9998C24.5001 15.8063 24.026 14.6617 23.1821 13.8178C22.3381 12.9739 21.1935 12.4998 20.0001 12.4998C18.8066 12.4998 17.662 12.9739 16.8181 13.8178C15.9742 14.6617 15.5001 15.8063 15.5001 16.9998C15.5001 19.3174 14.9154 20.9042 14.2623 21.9538C13.7114 22.8392 13.436 23.2818 13.4461 23.4053C13.4573 23.5421 13.4862 23.5942 13.5964 23.6759C13.6959 23.7498 14.1445 23.7498 15.0417 23.7498H24.9584C25.8556 23.7498 26.3042 23.7498 26.4037 23.6759C26.5139 23.5942 26.5429 23.5421 26.5541 23.4053C26.5642 23.2818 26.2887 22.8392 25.7378 21.9538C25.0847 20.9042 24.5001 19.3174 24.5001 16.9998Z" stroke="black" stroke-linecap="round" stroke-linejoin="round"/>
<rect x="20" y="7.50293" width="11" height="11" rx="5.5" fill="#E62E2E"/>
<path d="M25.27 15.0749C24.352 15.0749 23.746 14.4869 23.746 13.5989H24.508C24.508 14.0969 24.802 14.3909 25.288 14.3909C25.804 14.3909 26.134 14.0549 26.134 13.5209C26.134 13.0109 25.828 12.6629 25.3 12.6629C24.964 12.6629 24.658 12.8309 24.502 13.0589L23.824 12.9149L24.364 10.6169H26.65V11.3249H24.916L24.682 12.2369C24.892 12.0989 25.156 12.0209 25.456 12.0209C26.332 12.0209 26.914 12.6149 26.914 13.4789C26.914 14.4269 26.248 15.0749 25.27 15.0749Z" fill="white"/>
</svg>
